<svg xmlns="http://www.w3.org/2000/svg" viewBox="0 0 100 100">
  <rect width="100" height="100" rx="20" fill="#0EA5E9"/>
  <path d="M15 40 Q 20 25 35 30 Q 45 20 60 35 Q 75 25 85 45 Q 90 60 70 75 Q 60 85 40 70 Q 20 80 10 60 Z" fill="#0F172A" opacity="0.15" />
  <path d="M5 60 H 95 V 65 H 5 Z" fill="#0F172A" />
  <rect x="25" y="35" width="4" height="30" fill="#0F172A" />
  <rect x="71" y="35" width="4" height="30" fill="#0F172A" />
  <path d="M25 35 Q 48 55 71 35" fill="none" stroke="#0F172A" stroke-width="2" />
  <path d="M5 50 Q 15 45 25 35" fill="none" stroke="#0F172A" stroke-width="2" />
  <path d="M71 35 Q 85 45 95 50" fill="none" stroke="#0F172A" stroke-width="1.5" />
  <path d="M40 38 V 72 M40 38 L 60 72 M 60 38 V 72" fill="none" stroke="#0F172A" stroke-width="8" stroke-linecap="round" stroke-linejoin="round" />
</svg>
